# xmcd
#
# Track frame offsets:
#	150
#	19855
#	56340
#
# Disc length: 1148 seconds
#
# Revision: 4
# Processed by: cddbd v1.5.2PL0 Copyright (c) Steve Scherf et al.
# Submitted via: EasyCDDAExtractor 2011.0.0.0
#
DISCID=1b047a03
DTITLE=Danny Rampling - Community Of The Spirit
DYEAR=1999
DGENRE=House
TTITLE0=Community Of The Spirit (Radio Edit)
TTITLE1=Community Of The Spirit (Vocal Mix)
TTITLE2=Community Of The Spirit (Dub Mix)
EXTD=
EXTT0=
EXTT1=
EXTT2=
PLAYORDER=
